<?xml version="1.0" encoding="utf-8"?>
<!-- Generator: Adobe Illustrator 22.0.0, SVG Export Plug-In . SVG Version: 6.00 Build 0)  -->
<svg version="1.1" id="bicycle-repair" xmlns="http://www.w3.org/2000/svg" xmlns:xlink="http://www.w3.org/1999/xlink" x="0px"
	 y="0px" viewBox="0 0 28.3 28.3" style="enable-background:new 0 0 28.3 28.3;" xml:space="preserve">
<style type="text/css">
	.st0{fill:#FFFFFF;}
	.st1{fill:#717065;}
</style>
<g>
	<path id="_x3C_background_x3E_" class="st0" d="M4.3,0h19.8c2.3,0,4.3,1.9,4.3,4.3v19.8c0,2.3-1.9,4.3-4.3,4.3H4.3
		C2,27.9,0,26.5,0,24.1V4.2C0.1,1.9,2,0,4.3,0z"/>
	<path id="_x3C_background_x3E__1_" class="st1" d="M4.2,1.4h19.9c1.6,0,2.8,1.3,2.8,2.8v19.9c0,1.6-1.3,2.8-2.8,2.8H4.2
		c-1.6,0-2.8-1.3-2.8-2.8V4.2C1.4,2.7,2.7,1.4,4.2,1.4z"/>
	<path id="key" class="st0" d="M6.7,18c1.3,0,2.5-0.8,3.1-1.9H23c1,0,1.8-0.9,1.8-1.9S24,12.2,23,12.2H9.8c-0.6-1.2-1.8-1.9-3.1-1.9
		s-2.5,0.8-3.1,1.9h3.1c0,1.3,0,2.6,0,3.9H3.5C4.2,17.3,5.3,18,6.7,18z"/>
</g>
</svg>
