<?xml version="1.0" encoding="utf-8"?>
<!-- Generator: Adobe Illustrator 22.0.0, SVG Export Plug-In . SVG Version: 6.00 Build 0)  -->
<svg version="1.1" id="Слой_1" xmlns="http://www.w3.org/2000/svg" xmlns:xlink="http://www.w3.org/1999/xlink" x="0px" y="0px"
	 viewBox="0 0 20 20" style="enable-background:new 0 0 20 20;" xml:space="preserve">
<style type="text/css">
	.st0{opacity:0.6;fill:#FFFFFF;enable-background:new    ;}
	.st1{fill:#717065;}
	.st2{fill:#FFFFFF;}
</style>
<title>bike-parking-m</title>
<g>
	<path id="Rectangle" class="st0" d="M2.5,0h15C18.9,0,20,1.1,20,2.5v15c0,1.4-1.1,2.5-2.5,2.5h-15C1.1,20,0,18.9,0,17.5v-15
		C0,1.1,1.1,0,2.5,0z"/>
	<path id="Rectangle_1_" class="st1" d="M3,1h14c1.1,0,2,0.9,2,2v14c0,1.1-0.9,2-2,2H3c-1.1,0-2-0.9-2-2V3C1,1.9,1.9,1,3,1z"/>
	<path class="st2" d="M4,7.2C3,7.2,2,7.8,1.5,8.6h3.4L5.7,10l-0.9,1.4H1.5C2,12.2,3,12.8,4,12.8c1.1,0,2-0.6,2.5-1.4h6.6
		c0.5,0.8,1.4,1.4,2.5,1.4c1.6,0,2.9-1.2,2.9-2.8c0-1.5-1.3-2.8-2.9-2.8c-1.1,0-2,0.6-2.5,1.4H6.5C6,7.8,5.1,7.2,4,7.2z M14.7,8.6
		h1.8l0.9,1.4l-0.9,1.4h-1.8L13.8,10L14.7,8.6z"/>
</g>
</svg>
