<?xml version="1.0" encoding="utf-8"?>
<!-- Generator: Adobe Illustrator 22.0.0, SVG Export Plug-In . SVG Version: 6.00 Build 0)  -->
<svg version="1.1" id="bicycle-parking_1_" xmlns="http://www.w3.org/2000/svg" xmlns:xlink="http://www.w3.org/1999/xlink" x="0px"
	 y="0px" viewBox="0 0 28.3 28.3" style="enable-background:new 0 0 28.3 28.3;" xml:space="preserve">
<style type="text/css">
	.st0{fill:#FFFFFF;}
	.st1{fill:#2C89B0;}
	.st2{fill:#FFFFFF;stroke:#FFFFFF;stroke-width:0.2835;stroke-miterlimit:10;}
</style>
<g>
	<path id="_x3C_background_x3E_" class="st0" d="M4.3,0h19.8c2.3,0,4.3,1.9,4.3,4.3v19.8c0,2.3-1.9,4.3-4.3,4.3H4.3
		C2,28.2,0,26.5,0,24.1V4.2C0.1,1.9,2,0,4.3,0z"/>
	<path id="_x3C_background_x3E__1_" class="st1" d="M4.2,1.4h19.9c1.6,0,2.8,1.3,2.8,2.8v19.9c0,1.6-1.3,2.8-2.8,2.8H4.2
		c-1.6,0-2.8-1.3-2.8-2.8V4.2C1.4,2.7,2.7,1.4,4.2,1.4z"/>
	<path id="bicycle" class="st2" d="M14,6.9c-1,0-1,1.3,0,1.3h2V10l-3.7,3.1l-1.3-3.4h0.4c1,0,1-1.3,0-1.3H8.9c-1,0-1,1.3,0,1.3h1
		l1,3.1c-0.5-0.4-1.2-0.5-2-0.5c-2.5,0-4.6,2.1-4.6,4.6s2.1,4.6,4.6,4.6s4.6-2.1,4.6-4.6c0-1-0.3-1.7-0.7-2.4l3.7-3.1l0.7,1.6
		c-1.5,0.7-2.4,2.1-2.4,3.8c0,2.5,2.1,4.6,4.6,4.6s4.6-2.1,4.6-4.6s-2.1-4.6-4.6-4.6c-0.4,0-0.8,0-1,0.2l-1-2.4V7.6
		c0-0.4-0.3-0.7-0.7-0.7L14,6.9L14,6.9z M8.7,13.5c0.8,0,1.5,0.3,2.1,0.8l-2.5,2c-0.7,0.5,0.2,1.6,0.8,1l2.5-2.1
		c0.3,0.5,0.4,1,0.4,1.6c0,1.8-1.5,3.3-3.3,3.3s-3.3-1.5-3.3-3.3S6.9,13.5,8.7,13.5L8.7,13.5z M19.3,13.5c1.8,0,3.3,1.5,3.3,3.3
		s-1.5,3.3-3.3,3.3S16,18.7,16,16.8c0-1.2,0.5-2.1,1.5-2.8l1.2,3.1c0.3,0.8,1.6,0.4,1.2-0.5l-1-3.1C18.9,13.5,19,13.5,19.3,13.5
		L19.3,13.5z"/>
</g>
</svg>
